<?xml version="1.0" encoding="UTF-8"?>
<svg xmlns="http://www.w3.org/2000/svg" xmlns:xlink="http://www.w3.org/1999/xlink" version="1.1" width="600" height="600" viewBox="0 0 600 600" role="img">
  <line stroke="black" stroke-width="1px" opacity="0.75" x1="0" y1="600" x2="0" y2="0"></line>
  <line stroke="black" stroke-width="1px" opacity="0.25" x1="13.636363636363637" y1="600" x2="13.636363636363637" y2="0"></line>
  <line stroke="black" stroke-width="1px" opacity="0.25" x1="27.272727272727273" y1="600" x2="27.272727272727273" y2="0"></line>
  <line stroke="black" stroke-width="1px" opacity="0.25" x1="40.90909090909091" y1="600" x2="40.90909090909091" y2="0"></line>
  <line stroke="black" stroke-width="1px" opacity="0.25" x1="68.18181818181819" y1="600" x2="68.18181818181819" y2="0"></line>
  <line stroke="black" stroke-width="1px" opacity="0.25" x1="81.81818181818181" y1="600" x2="81.81818181818181" y2="0"></line>
  <line stroke="black" stroke-width="1px" opacity="0.25" x1="95.45454545454545" y1="600" x2="95.45454545454545" y2="0"></line>
  <line stroke="black" stroke-width="1px" opacity="0.75" x1="109.0909090909091" y1="600" x2="109.0909090909091" y2="0"></line>
  <line stroke="black" stroke-width="1px" opacity="0.25" x1="122.72727272727273" y1="600" x2="122.72727272727273" y2="0"></line>
  <line stroke="black" stroke-width="1px" opacity="0.25" x1="136.36363636363637" y1="600" x2="136.36363636363637" y2="0"></line>
  <line stroke="black" stroke-width="1px" opacity="0.25" x1="150" y1="600" x2="150" y2="0"></line>
  <line stroke="black" stroke-width="1px" opacity="0.75" x1="163.63636363636363" y1="600" x2="163.63636363636363" y2="0"></line>
  <line stroke="black" stroke-width="1px" opacity="0.25" x1="177.27272727272728" y1="600" x2="177.27272727272728" y2="0"></line>
  <line stroke="black" stroke-width="1px" opacity="0.25" x1="190.9090909090909" y1="600" x2="190.9090909090909" y2="0"></line>
  <line stroke="black" stroke-width="1px" opacity="0.25" x1="204.54545454545453" y1="600" x2="204.54545454545453" y2="0"></line>
  <line stroke="black" stroke-width="1px" opacity="0.75" x1="218.1818181818182" y1="600" x2="218.1818181818182" y2="0"></line>
  <line stroke="black" stroke-width="1px" opacity="0.25" x1="231.8181818181818" y1="600" x2="231.8181818181818" y2="0"></line>
  <line stroke="black" stroke-width="1px" opacity="0.25" x1="245.45454545454547" y1="600" x2="245.45454545454547" y2="0"></line>
  <line stroke="black" stroke-width="1px" opacity="0.25" x1="259.09090909090907" y1="600" x2="259.09090909090907" y2="0"></line>
  <line stroke="black" stroke-width="1px" opacity="0.75" x1="272.72727272727275" y1="600" x2="272.72727272727275" y2="0"></line>
  <line stroke="black" stroke-width="1px" opacity="0.25" x1="286.3636363636364" y1="600" x2="286.3636363636364" y2="0"></line>
  <line stroke="black" stroke-width="1px" opacity="0.25" x1="300" y1="600" x2="300" y2="0"></line>
  <line stroke="black" stroke-width="1px" opacity="0.25" x1="313.6363636363636" y1="600" x2="313.6363636363636" y2="0"></line>
  <line stroke="black" stroke-width="1px" opacity="0.75" x1="327.27272727272725" y1="600" x2="327.27272727272725" y2="0"></line>
  <line stroke="black" stroke-width="1px" opacity="0.25" x1="340.90909090909093" y1="600" x2="340.90909090909093" y2="0"></line>
  <line stroke="black" stroke-width="1px" opacity="0.25" x1="354.54545454545456" y1="600" x2="354.54545454545456" y2="0"></line>
  <line stroke="black" stroke-width="1px" opacity="0.25" x1="368.1818181818182" y1="600" x2="368.1818181818182" y2="0"></line>
  <line stroke="black" stroke-width="1px" opacity="0.75" x1="381.8181818181818" y1="600" x2="381.8181818181818" y2="0"></line>
  <line stroke="black" stroke-width="1px" opacity="0.25" x1="395.45454545454544" y1="600" x2="395.45454545454544" y2="0"></line>
  <line stroke="black" stroke-width="1px" opacity="0.25" x1="409.09090909090907" y1="600" x2="409.09090909090907" y2="0"></line>
  <line stroke="black" stroke-width="1px" opacity="0.25" x1="422.72727272727275" y1="600" x2="422.72727272727275" y2="0"></line>
  <line stroke="black" stroke-width="1px" opacity="0.75" x1="436.3636363636364" y1="600" x2="436.3636363636364" y2="0"></line>
  <line stroke="black" stroke-width="1px" opacity="0.25" x1="450" y1="600" x2="450" y2="0"></line>
  <line stroke="black" stroke-width="1px" opacity="0.25" x1="463.6363636363636" y1="600" x2="463.6363636363636" y2="0"></line>
  <line stroke="black" stroke-width="1px" opacity="0.25" x1="477.27272727272725" y1="600" x2="477.27272727272725" y2="0"></line>
  <line stroke="black" stroke-width="1px" opacity="0.75" x1="490.90909090909093" y1="600" x2="490.90909090909093" y2="0"></line>
  <line stroke="black" stroke-width="1px" opacity="0.25" x1="504.54545454545456" y1="600" x2="504.54545454545456" y2="0"></line>
  <line stroke="black" stroke-width="1px" opacity="0.25" x1="518.1818181818181" y1="600" x2="518.1818181818181" y2="0"></line>
  <line stroke="black" stroke-width="1px" opacity="0.25" x1="531.8181818181819" y1="600" x2="531.8181818181819" y2="0"></line>
  <line stroke="black" stroke-width="1px" opacity="0.75" x1="545.4545454545455" y1="600" x2="545.4545454545455" y2="0"></line>
  <line stroke="black" stroke-width="1px" opacity="0.25" x1="559.0909090909091" y1="600" x2="559.0909090909091" y2="0"></line>
  <line stroke="black" stroke-width="1px" opacity="0.25" x1="572.7272727272727" y1="600" x2="572.7272727272727" y2="0"></line>
  <line stroke="black" stroke-width="1px" opacity="0.25" x1="586.3636363636364" y1="600" x2="586.3636363636364" y2="0"></line>
  <line stroke="black" stroke-width="1px" opacity="0.75" x1="600" y1="600" x2="600" y2="0"></line>
  <line stroke="black" stroke-width="1px" opacity="0.25" x1="613.6363636363636" y1="600" x2="613.6363636363636" y2="0"></line>
  <line stroke="black" stroke-width="1px" opacity="0.25" x1="627.2727272727273" y1="600" x2="627.2727272727273" y2="0"></line>
  <line stroke="black" stroke-width="1px" opacity="0.25" x1="640.9090909090909" y1="600" x2="640.9090909090909" y2="0"></line>
  <line stroke="black" stroke-width="1px" opacity="0.75" x1="0" y1="600" x2="600" y2="600"></line>
  <line stroke="black" stroke-width="1px" opacity="0.25" x1="0" y1="580.6451612903226" x2="600" y2="580.6451612903226"></line>
  <line stroke="black" stroke-width="1px" opacity="0.25" x1="0" y1="561.2903225806451" x2="600" y2="561.2903225806451"></line>
  <line stroke="black" stroke-width="1px" opacity="0.25" x1="0" y1="541.9354838709678" x2="600" y2="541.9354838709678"></line>
  <line stroke="black" stroke-width="1px" opacity="0.25" x1="0" y1="522.5806451612904" x2="600" y2="522.5806451612904"></line>
  <line stroke="black" stroke-width="1px" opacity="0.75" x1="0" y1="503.2258064516129" x2="600" y2="503.2258064516129"></line>
  <line stroke="black" stroke-width="1px" opacity="0.25" x1="0" y1="483.8709677419355" x2="600" y2="483.8709677419355"></line>
  <line stroke="black" stroke-width="1px" opacity="0.25" x1="0" y1="464.51612903225805" x2="600" y2="464.51612903225805"></line>
  <line stroke="black" stroke-width="1px" opacity="0.25" x1="0" y1="445.1612903225806" x2="600" y2="445.1612903225806"></line>
  <line stroke="black" stroke-width="1px" opacity="0.25" x1="0" y1="425.80645161290323" x2="600" y2="425.80645161290323"></line>
  <line stroke="black" stroke-width="1px" opacity="0.75" x1="0" y1="406.4516129032258" x2="600" y2="406.4516129032258"></line>
  <line stroke="black" stroke-width="1px" opacity="0.25" x1="0" y1="387.0967741935484" x2="600" y2="387.0967741935484"></line>
  <line stroke="black" stroke-width="1px" opacity="0.25" x1="0" y1="367.741935483871" x2="600" y2="367.741935483871"></line>
  <line stroke="black" stroke-width="1px" opacity="0.25" x1="0" y1="348.38709677419354" x2="600" y2="348.38709677419354"></line>
  <line stroke="black" stroke-width="1px" opacity="0.25" x1="0" y1="329.03225806451616" x2="600" y2="329.03225806451616"></line>
  <line stroke="black" stroke-width="1px" opacity="0.75" x1="0" y1="309.6774193548387" x2="600" y2="309.6774193548387"></line>
  <line stroke="black" stroke-width="1px" opacity="0.25" x1="0" y1="290.3225806451613" x2="600" y2="290.3225806451613"></line>
  <line stroke="black" stroke-width="1px" opacity="0.25" x1="0" y1="270.96774193548384" x2="600" y2="270.96774193548384"></line>
  <line stroke="black" stroke-width="1px" opacity="0.25" x1="0" y1="251.61290322580646" x2="600" y2="251.61290322580646"></line>
  <line stroke="black" stroke-width="1px" opacity="0.25" x1="0" y1="232.25806451612902" x2="600" y2="232.25806451612902"></line>
  <line stroke="black" stroke-width="1px" opacity="0.75" x1="0" y1="212.9032258064516" x2="600" y2="212.9032258064516"></line>
  <line stroke="black" stroke-width="1px" opacity="0.25" x1="0" y1="193.5483870967742" x2="600" y2="193.5483870967742"></line>
  <line stroke="black" stroke-width="1px" opacity="0.25" x1="0" y1="174.19354838709677" x2="600" y2="174.19354838709677"></line>
  <line stroke="black" stroke-width="1px" opacity="0.25" x1="0" y1="154.83870967741933" x2="600" y2="154.83870967741933"></line>
  <line stroke="black" stroke-width="1px" opacity="0.25" x1="0" y1="135.48387096774195" x2="600" y2="135.48387096774195"></line>
  <line stroke="black" stroke-width="1px" opacity="0.75" x1="0" y1="116.12903225806451" x2="600" y2="116.12903225806451"></line>
  <line stroke="black" stroke-width="1px" opacity="0.25" x1="0" y1="96.77419354838707" x2="600" y2="96.77419354838707"></line>
  <line stroke="black" stroke-width="1px" opacity="0.25" x1="0" y1="77.41935483870964" x2="600" y2="77.41935483870964"></line>
  <line stroke="black" stroke-width="1px" opacity="0.25" x1="0" y1="58.06451612903231" x2="600" y2="58.06451612903231"></line>
  <line stroke="black" stroke-width="1px" opacity="0.25" x1="0" y1="38.709677419354875" x2="600" y2="38.709677419354875"></line>
  <line stroke="black" stroke-width="1px" opacity="0.75" x1="0" y1="19.354838709677438" x2="600" y2="19.354838709677438"></line>
  <line stroke="black" stroke-width="1px" opacity="0.25" x1="0" y1="0" x2="600" y2="0"></line>
  <line stroke="black" stroke-width="1px" opacity="0.25" x1="0" y1="-19.354838709677438" x2="600" y2="-19.354838709677438"></line>
  <line stroke="black" stroke-width="1px" opacity="0.25" x1="0" y1="-38.709677419354875" x2="600" y2="-38.709677419354875"></line>
  <line stroke="black" stroke-width="1px" opacity="0.25" x1="0" y1="-58.06451612903231" x2="600" y2="-58.06451612903231"></line>
  <line stroke="black" stroke-width="2px" x1="0" y1="580.6451612903226" x2="600" y2="580.6451612903226"></line>
  <line stroke="black" stroke-width="2px" x1="54.54545454545455" y1="600" x2="54.54545454545455" y2="0"></line>
  <line stroke="black" stroke-width="2px" opacity="1" x1="0" y1="575.6451612903226" x2="0" y2="585.6451612903226"></line>
  <line stroke="black" stroke-width="2px" opacity="1" x1="109.0909090909091" y1="575.6451612903226" x2="109.0909090909091" y2="585.6451612903226"></line>
  <line stroke="black" stroke-width="2px" opacity="1" x1="163.63636363636363" y1="575.6451612903226" x2="163.63636363636363" y2="585.6451612903226"></line>
  <line stroke="black" stroke-width="2px" opacity="1" x1="218.1818181818182" y1="575.6451612903226" x2="218.1818181818182" y2="585.6451612903226"></line>
  <line stroke="black" stroke-width="2px" opacity="1" x1="272.72727272727275" y1="575.6451612903226" x2="272.72727272727275" y2="585.6451612903226"></line>
  <line stroke="black" stroke-width="2px" opacity="1" x1="327.27272727272725" y1="575.6451612903226" x2="327.27272727272725" y2="585.6451612903226"></line>
  <line stroke="black" stroke-width="2px" opacity="1" x1="381.8181818181818" y1="575.6451612903226" x2="381.8181818181818" y2="585.6451612903226"></line>
  <line stroke="black" stroke-width="2px" opacity="1" x1="436.3636363636364" y1="575.6451612903226" x2="436.3636363636364" y2="585.6451612903226"></line>
  <line stroke="black" stroke-width="2px" opacity="1" x1="490.90909090909093" y1="575.6451612903226" x2="490.90909090909093" y2="585.6451612903226"></line>
  <line stroke="black" stroke-width="2px" opacity="1" x1="545.4545454545455" y1="575.6451612903226" x2="545.4545454545455" y2="585.6451612903226"></line>
  <line stroke="black" stroke-width="2px" opacity="1" x1="600" y1="575.6451612903226" x2="600" y2="585.6451612903226"></line>
  <line stroke="black" stroke-width="2px" opacity="1" x1="49.54545454545455" y1="600" x2="59.54545454545455" y2="600"></line>
  <line stroke="black" stroke-width="2px" opacity="1" x1="49.54545454545455" y1="503.2258064516129" x2="59.54545454545455" y2="503.2258064516129"></line>
  <line stroke="black" stroke-width="2px" opacity="1" x1="49.54545454545455" y1="406.4516129032258" x2="59.54545454545455" y2="406.4516129032258"></line>
  <line stroke="black" stroke-width="2px" opacity="1" x1="49.54545454545455" y1="309.6774193548387" x2="59.54545454545455" y2="309.6774193548387"></line>
  <line stroke="black" stroke-width="2px" opacity="1" x1="49.54545454545455" y1="212.9032258064516" x2="59.54545454545455" y2="212.9032258064516"></line>
  <line stroke="black" stroke-width="2px" opacity="1" x1="49.54545454545455" y1="116.12903225806451" x2="59.54545454545455" y2="116.12903225806451"></line>
  <line stroke="black" stroke-width="2px" opacity="1" x1="49.54545454545455" y1="19.354838709677438" x2="59.54545454545455" y2="19.354838709677438"></line>
  <path fill="none" stroke="black" stroke-width="1px" d="M0.6000 -1167.9222 M1.2000 -288.3612 L1.8000 4.6936 L2.4000 151.1245 L3.0000 238.9082 L3.6000 297.3699 L4.2000 339.0776 L4.8000 370.3153 L5.4000 394.5739 L6.0000 413.9480 L6.6000 429.7706 L7.2000 442.9301 L7.8000 454.0417 L8.4000 463.5447 L9.0000 471.7613 L9.6000 478.9332 L10.2000 485.2450 L10.8000 490.8405 L11.4000 495.8330 L12.0000 500.3133 L12.6000 504.3547 L13.2000 508.0175 L13.8000 511.3511 L14.4000 514.3969 L15.0000 517.1896 L15.6000 519.7587 L16.2000 522.1290 L16.8000 524.3220 L17.4000 526.3562 L18.0000 528.2476 L18.6000 530.0101 L19.2000 531.6560 L19.8000 533.1958 L20.4000 534.6390 L21.0000 535.9941 L21.6000 537.2684 L22.2000 538.4685 L22.8000 539.6004 L23.4000 540.6693 L24.0000 541.6801 L24.6000 542.6371 L25.2000 543.5441 L25.8000 544.4046 L26.4000 545.2220 L27.0000 545.9990 L27.6000 546.7384 L28.2000 547.4426 L28.8000 548.1138 L29.4000 548.7541 L30.0000 549.3653 L30.6000 549.9493 L31.2000 550.5075 L31.8000 551.0414 L32.4000 551.5525 L33.0000 552.0420 L33.6000 552.5110 L34.2000 552.9606 L34.8000 553.3920 L35.4000 553.8059 L36.0000 554.2033 L36.6000 554.5850 L37.2000 554.9517 L37.8000 555.3043 L38.4000 555.6433 L39.0000 555.9693 L39.6000 556.2831 L40.2000 556.5850 L40.8000 556.8757 L41.4000 557.1557 L42.0000 557.4253 L42.6000 557.6851 L43.2000 557.9354 L43.8000 558.1766 L44.4000 558.4091 L45.0000 558.6332 L45.6000 558.8493 L46.2000 559.0577 L46.8000 559.2586 L47.4000 559.4524 L48.0000 559.6392 L48.6000 559.8194 L49.2000 559.9932 L49.8000 560.1607 L50.4000 560.3223 L51.0000 560.4781 L51.6000 560.6283 L52.2000 560.7731 L52.8000 560.9126 L53.4000 561.0471 L54.0000 561.1767 L54.6000 561.3015 L55.2000 561.4217 L55.8000 561.5374 L56.4000 561.6487 L57.0000 561.7558 L57.6000 561.8588 L58.2000 561.9578 L58.8000 562.0529 L59.4000 562.1443 L60.0000 562.2319 L60.6000 562.3160 L61.2000 562.3965 L61.8000 562.4736 L62.4000 562.5474 L63.0000 562.6180 L63.6000 562.6853 L64.2000 562.7496 L64.8000 562.8108 L65.4000 562.8690 L66.0000 562.9243 L66.6000 562.9768 L67.2000 563.0265 L67.8000 563.0734 L68.4000 563.1177 L69.0000 563.1593 L69.6000 563.1983 L70.2000 563.2348 L70.8000 563.2688 L71.4000 563.3004 L72.0000 563.3295 L72.6000 563.3563 L73.2000 563.3807 L73.8000 563.4029 L74.4000 563.4227 L75.0000 563.4404 L75.6000 563.4558 L76.2000 563.4691 L76.8000 563.4802 L77.4000 563.4892 L78.0000 563.4961 L78.6000 563.5009 L79.2000 563.5037 L79.8000 563.5044 L80.4000 563.5032 L81.0000 563.5000 L81.6000 563.4948 L82.2000 563.4876 L82.8000 563.4785 L83.4000 563.4675 L84.0000 563.4546 L84.6000 563.4398 L85.2000 563.4232 L85.8000 563.4046 L86.4000 563.3843 L87.0000 563.3620 L87.6000 563.3380 L88.2000 563.3121 L88.8000 563.2844 L89.4000 563.2549 L90.0000 563.2235 L90.6000 563.1904 L91.2000 563.1555 L91.8000 563.1188 L92.4000 563.0803 L93.0000 563.0401 L93.6000 562.9980 L94.2000 562.9542 L94.8000 562.9086 L95.4000 562.8612 L96.0000 562.8121 L96.6000 562.7612 L97.2000 562.7085 L97.8000 562.6540 L98.4000 562.5977 L99.0000 562.5397 L99.6000 562.4798 L100.2000 562.4182 L100.8000 562.3547 L101.4000 562.2895 L102.0000 562.2224 L102.6000 562.1536 L103.2000 562.0829 L103.8000 562.0104 L104.4000 561.9360 L105.0000 561.8598 L105.6000 561.7818 L106.2000 561.7019 L106.8000 561.6201 L107.4000 561.5364 L108.0000 561.4508 L108.6000 561.3633 L109.2000 561.2739 L109.8000 561.1826 L110.4000 561.0893 L111.0000 560.9941 L111.6000 560.8969 L112.2000 560.7977 L112.8000 560.6965 L113.4000 560.5933 L114.0000 560.4880 L114.6000 560.3808 L115.2000 560.2714 L115.8000 560.1600 L116.4000 560.0464 L117.0000 559.9308 L117.6000 559.8130 L118.2000 559.6930 L118.8000 559.5709 L119.4000 559.4465 L120.0000 559.3200 L120.6000 559.1911 L121.2000 559.0601 L121.8000 558.9267 L122.4000 558.7911 L123.0000 558.6530 L123.6000 558.5127 L124.2000 558.3699 L124.8000 558.2248 L125.4000 558.0772 L126.0000 557.9271 L126.6000 557.7746 L127.2000 557.6195 L127.8000 557.4619 L128.4000 557.3017 L129.0000 557.1389 L129.6000 556.9734 L130.2000 556.8053 L130.8000 556.6345 L131.4000 556.4610 L132.0000 556.2847 L132.6000 556.1056 L133.2000 555.9236 L133.8000 555.7388 L134.4000 555.5511 L135.0000 555.3604 L135.6000 555.1668 L136.2000 554.9702 L136.8000 554.7704 L137.4000 554.5676 L138.0000 554.3617 L138.6000 554.1526 L139.2000 553.9403 L139.8000 553.7247 L140.4000 553.5058 L141.0000 553.2835 L141.6000 553.0579 L142.2000 552.8288 L142.8000 552.5963 L143.4000 552.3602 L144.0000 552.1205 L144.6000 551.8772 L145.2000 551.6302 L145.8000 551.3795 L146.4000 551.1250 L147.0000 550.8667 L147.6000 550.6045 L148.2000 550.3383 L148.8000 550.0682 L149.4000 549.7940 L150.0000 549.5156 L150.6000 549.2331 L151.2000 548.9464 L151.8000 548.6553 L152.4000 548.3599 L153.0000 548.0601 L153.6000 547.7558 L154.2000 547.4470 L154.8000 547.1335 L155.4000 546.8153 L156.0000 546.4924 L156.6000 546.1647 L157.2000 545.8321 L157.8000 545.4945 L158.4000 545.1518 L159.0000 544.8040 L159.6000 544.4511 L160.2000 544.0928 L160.8000 543.7293 L161.4000 543.3602 L162.0000 542.9857 L162.6000 542.6055 L163.2000 542.2197 L163.8000 541.8281 L164.4000 541.4306 L165.0000 541.0272 L165.6000 540.6177 L166.2000 540.2021 L166.8000 539.7803 L167.4000 539.3521 L168.0000 538.9175 L168.6000 538.4764 L169.2000 538.0287 L169.8000 537.5742 L170.4000 537.1129 L171.0000 536.6446 L171.6000 536.1693 L172.2000 535.6868 L172.8000 535.1970 L173.4000 534.6998 L174.0000 534.1951 L174.6000 533.6828 L175.2000 533.1627 L175.8000 532.6348 L176.4000 532.0988 L177.0000 531.5547 L177.6000 531.0024 L178.2000 530.4416 L178.8000 529.8724 L179.4000 529.2944 L180.0000 528.7077 L180.6000 528.1120 L181.2000 527.5072 L181.8000 526.8931 L182.4000 526.2697 L183.0000 525.6367 L183.6000 524.9940 L184.2000 524.3414 L184.8000 523.6788 L185.4000 523.0061 L186.0000 522.3229 L186.6000 521.6293 L187.2000 520.9249 L187.8000 520.2097 L188.4000 519.4834 L189.0000 518.7459 L189.6000 517.9969 L190.2000 517.2363 L190.8000 516.4640 L191.4000 515.6796 L192.0000 514.8830 L192.6000 514.0740 L193.2000 513.2523 L193.8000 512.4179 L194.4000 511.5704 L195.0000 510.7096 L195.6000 509.8353 L196.2000 508.9474 L196.8000 508.0454 L197.4000 507.1293 L198.0000 506.1988 L198.6000 505.2536 L199.2000 504.2935 L199.8000 503.3182 L200.4000 502.3274 L201.0000 501.3210 L201.6000 500.2987 L202.2000 499.2600 L202.8000 498.2049 L203.4000 497.1330 L204.0000 496.0440 L204.6000 494.9376 L205.2000 493.8136 L205.8000 492.6715 L206.4000 491.5112 L207.0000 490.3323 L207.6000 489.1344 L208.2000 487.9173 L208.8000 486.6806 L209.4000 485.4240 L210.0000 484.1471 L210.6000 482.8495 L211.2000 481.5310 L211.8000 480.1911 L212.4000 478.8295 L213.0000 477.4458 L213.6000 476.0395 L214.2000 474.6104 L214.8000 473.1580 L215.4000 471.6819 L216.0000 470.1817 L216.6000 468.6569 L217.2000 467.1071 L217.8000 465.5320 L218.4000 463.9309 L219.0000 462.3035 L219.6000 460.6494 L220.2000 458.9679 L220.8000 457.2587 L221.4000 455.5213 L222.0000 453.7551 L222.6000 451.9597 L223.2000 450.1344 L223.8000 448.2788 L224.4000 446.3924 L225.0000 444.4746 L225.6000 442.5248 L226.2000 440.5424 L226.8000 438.5269 L227.4000 436.4776 L228.0000 434.3940 L228.6000 432.2755 L229.2000 430.1213 L229.8000 427.9310 L230.4000 425.7037 L231.0000 423.4389 L231.6000 421.1358 L232.2000 418.7938 L232.8000 416.4121 L233.4000 413.9901 L234.0000 411.5269 L234.6000 409.0219 L235.2000 406.4743 L235.8000 403.8833 L236.4000 401.2481 L237.0000 398.5680 L237.6000 395.8419 L238.2000 393.0693 L238.8000 390.2491 L239.4000 387.3804 L240.0000 384.4625 L240.6000 381.4944 L241.2000 378.4752 L241.8000 375.4039 L242.4000 372.2796 L243.0000 369.1012 L243.6000 365.8679 L244.2000 362.5785 L244.8000 359.2320 L245.4000 355.8274 L246.0000 352.3635 L246.6000 348.8393 L247.2000 345.2537 L247.8000 341.6055 L248.4000 337.8935 L249.0000 334.1165 L249.6000 330.2733 L250.2000 326.3628 L250.8000 322.3835 L251.4000 318.3343 L252.0000 314.2137 L252.6000 310.0206 L253.2000 305.7534 L253.8000 301.4108 L254.4000 296.9914 L255.0000 292.4937 L255.6000 287.9163 L256.2000 283.2575 L256.8000 278.5160 L257.4000 273.6901 L258.0000 268.7782 L258.6000 263.7787 L259.2000 258.6899 L259.8000 253.5100 L260.4000 248.2375 L261.0000 242.8705 L261.6000 237.4071 L262.2000 231.8456 L262.8000 226.1841 L263.4000 220.4207 L264.0000 214.5533 L264.6000 208.5800 L265.2000 202.4989 L265.8000 196.3077 L266.4000 190.0043 L267.0000 183.5867 L267.6000 177.0526 L268.2000 170.3997 L268.8000 163.6258 L269.4000 156.7286 L270.0000 149.7055 L270.6000 142.5542 L271.2000 135.2723 L271.8000 127.8570 L272.4000 120.3060 L273.0000 112.6165 L273.6000 104.7857 L274.2000 96.8111 L274.8000 88.6897 L275.4000 80.4188 L276.0000 71.9953 L276.6000 63.4162 L277.2000 54.6786 L277.8000 45.7794 L278.4000 36.7153 L279.0000 27.4831 L279.6000 18.0795 L280.2000 8.5011 L280.8000 -1.2555 L281.4000 -11.1938 L282.0000 -21.3174 L282.6000 -31.6299 L283.2000 -42.1352 L283.8000 -52.8370 L284.4000 -63.7392 L285.0000 -74.8459 L285.6000 -86.1609 L286.2000 -97.6886 L286.8000 -109.4330 L287.4000 -121.3986 L288.0000 -133.5897 L288.6000 -146.0109 L289.2000 -158.6666 L289.8000 -171.5617 L290.4000 -184.7009 L291.0000 -198.0890 L291.6000 -211.7311 L292.2000 -225.6322 L292.8000 -239.7976 L293.4000 -254.2326 L294.0000 -268.9425 L294.6000 -283.9329 L295.2000 -299.2094 L295.8000 -314.7778 L296.4000 -330.6441 L297.0000 -346.8141 L297.6000 -363.2941 L298.2000 -380.0903 L298.8000 -397.2091 L299.4000 -414.6571 L300.0000 -432.4409 L300.6000 -450.5673 L301.2000 -469.0432 L301.8000 -487.8759 L302.4000 -507.0725 L303.0000 -526.6405 L303.6000 -546.5874 L304.2000 -566.9209 L304.8000 -587.6490 L305.4000 -608.7797 L306.0000 -630.3212 L306.6000 -652.2820 L307.2000 -674.6706 L307.8000 -697.4957 L308.4000 -720.7665 L309.0000 -744.4919 L309.6000 -768.6813 L310.2000 -793.3444 L310.8000 -818.4907 L311.4000 -844.1304 L312.0000 -870.2735 L312.6000 -896.9305 L313.2000 -924.1119 L313.8000 -951.8286 L314.4000 -980.0917 L315.0000 -1008.9124 L315.6000 -1038.3024 L316.2000 -1068.2734 L316.8000 -1098.8375 L317.4000 -1130.0071 L318.0000 -1161.7946 L318.6000 -1194.2130 L319.2000 -1227.2754 L319.8000 -1260.9951 L320.4000 -1295.3861 L321.0000 -1330.4621 L321.6000 -1366.2375 L322.2000 -1402.7271 L322.8000 -1439.9456 L323.4000 -1477.9083 L324.0000 -1516.6310 L324.6000 -1556.1294 L325.2000 -1596.4199 L325.8000 -1637.5191 L326.4000 -1679.4440 L327.0000 -1722.2120 L327.6000 -1765.8408 L328.2000 -1810.3486 L328.8000 -1855.7539 L329.4000 -1902.0757 L330.0000 -1949.3333 L330.6000 -1997.5464 L331.2000 -2046.7354 L331.8000 -2096.9208 L332.4000 -2148.1237 L333.0000 -2200.3659 L333.6000 -2253.6692 L334.2000 -2308.0563 L334.8000 -2363.5501 L335.4000 -2420.1742 L336.0000 -2477.9527 L336.6000 -2536.9102 L337.2000 -2597.0717 L337.8000 -2658.4631 L338.4000 -2721.1104 L339.0000 -2785.0407 L339.6000 -2850.2812 L340.2000 -2916.8601 L340.8000 -2984.8060 L341.4000 -3054.1482 L342.0000 -3124.9167 L342.6000 -3197.1420 L343.2000 -3270.8555 L343.8000 -3346.0891 L344.4000 -3422.8756 L345.0000 -3501.2484 L345.6000 -3581.2416 L346.2000 -3662.8903 L346.8000 -3746.2301 L347.4000 -3831.2975 L348.0000 -3918.1299 L348.6000 -4006.7654 L349.2000 -4097.2431 L349.8000 -4189.6029 L350.4000 -4283.8855 L351.0000 -4380.1326 L351.6000 -4478.3870 L352.2000 -4578.6921 L352.8000 -4681.0927 L353.4000 -4785.6341 L354.0000 -4892.3632 L354.6000 -5001.3274 L355.2000 -5112.5756 L355.8000 -5226.1576 L356.4000 -5342.1243 L357.0000 -5460.5278 L357.6000 -5581.4214 L358.2000 -5704.8595 L358.8000 -5830.8980 L359.4000 -5959.5937 L360.0000 -6091.0050 L360.6000 -6225.1913 L361.2000 -6362.2138 L361.8000 -6502.1345 L362.4000 -6645.0174 L363.0000 -6790.9275 L363.6000 -6939.9316 L364.2000 -7092.0978 L364.8000 -7247.4958 L365.4000 -7406.1970 L366.0000 -7568.2742 L366.6000 -7733.8022 L367.2000 -7902.8571 L367.8000 -8075.5171 L368.4000 -8251.8620 L369.0000 -8431.9734 L369.6000 -8615.9349 L370.2000 -8803.8319 L370.8000 -8995.7517 L371.4000 -9191.7838 L372.0000 -9392.0196 L372.6000 -9596.5527 L373.2000 -9805.4787 L373.8000 -10018.8955 L374.4000 -10236.9033 L375.0000 -10459.6044 L375.6000 -10687.1038 L376.2000 -10919.5085 L376.8000 -11156.9283 L377.4000 -11399.4754 L378.0000 -11647.2645 L378.6000 -11900.4132 L379.2000 -12159.0415 L379.8000 -12423.2724 L380.4000 -12693.2317 L381.0000 -12969.0480 L381.6000 -13250.8531 L382.2000 -13538.7816 L382.8000 -13832.9714 L383.4000 -14133.5635 L384.0000 -14440.7021 L384.6000 -14754.5351 L385.2000 -15075.2134 L385.8000 -15402.8917 L386.4000 -15737.7281 L387.0000 -16079.8845 L387.6000 -16429.5266 L388.2000 -16786.8240 L388.8000 -17151.9499 L389.4000 -17525.0820 L390.0000 -17906.4020 L390.6000 -18296.0956 L391.2000 -18694.3532 L391.8000 -19101.3694 L392.4000 -19517.3435 L393.0000 -19942.4793 L393.6000 -20376.9857 L394.2000 -20821.0761 L394.8000 -21274.9691 L395.4000 -21738.8885 L396.0000 -22213.0632 L396.6000 -22697.7276 L397.2000 -23193.1215 L397.8000 -23699.4904 L398.4000 -24217.0857 L399.0000 -24746.1644 L399.6000 -25286.9899 L400.2000 -25839.8317 L400.8000 -26404.9655 L401.4000 -26982.6736 L402.0000 -27573.2452 M402.6000 -28176.9759 M403.2000 -28794.1686 M403.8000 -29425.1333 M404.4000 -30070.1874 M405.0000 -30729.6556 M405.6000 -31403.8704 M406.2000 -32093.1724 M406.8000 -32797.9100 M407.4000 -33518.4400 M408.0000 -34255.1275 M408.6000 -35008.3466 M409.2000 -35778.4800 M409.8000 -36565.9197 M410.4000 -37371.0668 M411.0000 -38194.3323 M411.6000 -39036.1367 M412.2000 -39896.9105 M412.8000 -40777.0948 M413.4000 -41677.1409 M414.0000 -42597.5111 M414.6000 -43538.6785 M415.2000 -44501.1278 M415.8000 -45485.3550 M416.4000 -46491.8682 M417.0000 -47521.1877 M417.6000 -48573.8460 M418.2000 -49650.3886 M418.8000 -50751.3740 M419.4000 -51877.3742 M420.0000 -53028.9748 M420.6000 -54206.7754 M421.2000 -55411.3903 M421.8000 -56643.4484 M422.4000 -57903.5938 M423.0000 -59192.4859 M423.6000 -60510.8003 M424.2000 -61859.2287 M424.8000 -63238.4794 M425.4000 -64649.2781 M426.0000 -66092.3678 M426.6000 -67568.5094 M427.2000 -69078.4823 M427.8000 -70623.0848 M428.4000 -72203.1344 M429.0000 -73819.4684 M429.6000 -75472.9444 M430.2000 -77164.4409 M430.8000 -78894.8576 M431.4000 -80665.1159 M432.0000 -82476.1599 M432.6000 -84328.9562 M433.2000 -86224.4953 M433.8000 -88163.7915 M434.4000 -90147.8839 M435.0000 -92177.8368 M435.6000 -94254.7406 M436.2000 -96379.7122 M436.8000 -98553.8954 M437.4000 -100778.4625 M438.0000 -103054.6138 M438.6000 -105383.5793 M439.2000 -107766.6190 M439.8000 -110205.0235 M440.4000 -112700.1152 M441.0000 -115253.2486 M441.6000 -117865.8116 M442.2000 -120539.2259 M442.8000 -123274.9483 M443.4000 -126074.4709 M444.0000 -128939.3228 M444.6000 -131871.0705 M445.2000 -134871.3188 M445.8000 -137941.7120 M446.4000 -141083.9351 M447.0000 -144299.7142 M447.6000 -147590.8179 M448.2000 -150959.0586 M448.8000 -154406.2930 M449.4000 -157934.4237 M450.0000 -161545.4003 M450.6000 -165241.2205 M451.2000 -169023.9310 M451.8000 -172895.6294 M452.4000 -176858.4649 M453.0000 -180914.6400 M453.6000 -185066.4114 M454.2000 -189316.0920 M454.8000 -193666.0516 M455.4000 -198118.7188 M456.0000 -202676.5827 M456.6000 -207342.1935 M457.2000 -212118.1652 M457.8000 -217007.1765 M458.4000 -222011.9724 M459.0000 -227135.3663 M459.6000 -232380.2416 M460.2000 -237749.5531 M460.8000 -243246.3295 M461.4000 -248873.6746 M462.0000 -254634.7695 M462.6000 -260532.8747 M463.2000 -266571.3318 M463.8000 -272753.5660 M464.4000 -279083.0877 M465.0000 -285563.4951 M465.6000 -292198.4762 M466.2000 -298991.8112 M466.8000 -305947.3747 M467.4000 -313069.1383 M468.0000 -320361.1730 M468.6000 -327827.6517 M469.2000 -335472.8519 M469.8000 -343301.1582 M470.4000 -351317.0652 M471.0000 -359525.1802 M471.6000 -367930.2261 M472.2000 -376537.0445 M472.8000 -385350.5987 M473.4000 -394375.9764 M474.0000 -403618.3937 M474.6000 -413083.1976 M475.2000 -422775.8698 M475.8000 -432702.0300 M476.4000 -442867.4395 M477.0000 -453278.0048 M477.6000 -463939.7816 M478.2000 -474858.9779 M478.8000 -486041.9588 M479.4000 -497495.2501 M480.0000 -509225.5423 M480.6000 -521239.6952 M481.2000 -533544.7421 M481.8000 -546147.8939 M482.4000 -559056.5446 M483.0000 -572278.2751 M483.6000 -585820.8584 M484.2000 -599692.2646 M484.8000 -613900.6660 M485.4000 -628454.4422 M486.0000 -643362.1855 M486.6000 -658632.7065 M487.2000 -674275.0395 M487.8000 -690298.4487 M488.4000 -706712.4336 M489.0000 -723526.7358 M489.6000 -740751.3446 M490.2000 -758396.5037 M490.8000 -776472.7181 M491.4000 -794990.7602 M492.0000 -813961.6774 M492.6000 -833396.7989 M493.2000 -853307.7430 M493.8000 -873706.4250 M494.4000 -894605.0643 M495.0000 -916016.1928 M495.6000 -937952.6629 M496.2000 -960427.6559 M496.8000 -983454.6903 M497.4000 -1007047.6310 M498.0000 -1031220.6981 M498.6000 -1055988.4759 M499.2000 -1081365.9232 M499.8000 -1107368.3820 M500.4000 -1134011.5886 M501.0000 -1161311.6831 M501.6000 -1189285.2202 M502.2000 -1217949.1803 M502.8000 -1247320.9802 M503.4000 -1277418.4848 M504.0000 -1308260.0190 M504.6000 -1339864.3791 M505.2000 -1372250.8460 M505.8000 -1405439.1971 M506.4000 -1439449.7201 M507.0000 -1474303.2258 M507.6000 -1510021.0619 M508.2000 -1546625.1274 M508.8000 -1584137.8869 M509.4000 -1622582.3855 M510.0000 -1661982.2639 M510.6000 -1702361.7743 M511.2000 -1743745.7965 M511.8000 -1786159.8542 M512.4000 -1829630.1320 M513.0000 -1874183.4932 M513.6000 -1919847.4970 M514.2000 -1966650.4175 M514.8000 -2014621.2623 M515.4000 -2063789.7917 M516.0000 -2114186.5388 M516.6000 -2165842.8298 M517.2000 -2218790.8052 M517.8000 -2273063.4408 M518.4000 -2328694.5704 M519.0000 -2385718.9081 M519.6000 -2444172.0715 M520.2000 -2504090.6062 M520.8000 -2565512.0098 M521.4000 -2628474.7573 M522.0000 -2693018.3273 M522.6000 -2759183.2280 M523.2000 -2827011.0252 M523.8000 -2896544.3699 M524.4000 -2967827.0272 M525.0000 -3040903.9062 M525.6000 -3115821.0899 M526.2000 -3192625.8668 M526.8000 -3271366.7628 M527.4000 -3352093.5742 M528.0000 -3434857.4014 M528.6000 -3519710.6837 M529.2000 -3606707.2349 M529.8000 -3695902.2800 M530.4000 -3787352.4929 M531.0000 -3881116.0349 M531.6000 -3977252.5942 M532.2000 -4075823.4272 M532.8000 -4176891.3998 M533.4000 -4280521.0308 M534.0000 -4386778.5358 M534.6000 -4495731.8728 M535.2000 -4607450.7883 M535.8000 -4722006.8660 M536.4000 -4839473.5752 M537.0000 -4959926.3215 M537.6000 -5083442.4988 M538.2000 -5210101.5427 M538.8000 -5339984.9848 M539.4000 -5473176.5090 M540.0000 -5609762.0098 M540.6000 -5749829.6508 M541.2000 -5893469.9263 M541.8000 -6040775.7234 M542.4000 -6191842.3867 M543.0000 -6346767.7839 M543.6000 -6505652.3742 M544.2000 -6668599.2774 M544.8000 -6835714.3461 M545.4000 -7007106.2389 M546.0000 -7182886.4958 M546.6000 -7363169.6163 M547.2000 -7548073.1389 M547.8000 -7737717.7230 M548.4000 -7932227.2333 M549.0000 -8131728.8257 M549.6000 -8336353.0371 M550.2000 -8546233.8758 M550.8000 -8761508.9157 M551.4000 -8982319.3926 M552.0000 -9208810.3032 M552.6000 -9441130.5067 M553.2000 -9679432.8295 M553.8000 -9923874.1724 M554.4000 -10174615.6208 M555.0000 -10431822.5584 M555.6000 -10695664.7834 M556.2000 -10966316.6281 M556.8000 -11243957.0822 M557.4000 -11528769.9186 M558.0000 -11820943.8237 M558.6000 -12120672.5304 M559.2000 -12428154.9555 M559.8000 -12743595.3401 M560.4000 -13067203.3948 M561.0000 -13399194.4480 M561.6000 -13739789.5986 M562.2000 -14089215.8737 M562.8000 -14447706.3889 M563.4000 -14815500.5151 M564.0000 -15192844.0481 M564.6000 -15579989.3840 M565.2000 -15977195.6994 M565.8000 -16384729.1355 M566.4000 -16802862.9888 M567.0000 -17231877.9061 M567.6000 -17672062.0851 M568.2000 -18123711.4805 M568.8000 -18587130.0163 M569.4000 -19062629.8031 M570.0000 -19550531.3622 M570.6000 -20051163.8557 M571.2000 -20564865.3224 M571.8000 -21091982.9215 M572.4000 -21632873.1816 M573.0000 -22187902.2576 M573.6000 -22757446.1945 M574.2000 -23341891.1985 M574.8000 -23941633.9152 M575.4000 -24557081.7166 M576.0000 -25188652.9948 M576.6000 -25836777.4647 M577.2000 -26501896.4750 M577.8000 -27184463.3278 M578.4000 -27884943.6067 M579.0000 -28603815.5148 M579.6000 -29341570.2213 M580.2000 -30098712.2186 M580.8000 -30875759.6887 M581.4000 -31673244.8798 M582.0000 -32491714.4942 M582.6000 -33331730.0860 M583.2000 -34193868.4706 M583.8000 -35078722.1451 M584.4000 -35986899.7214 M585.0000 -36919026.3699 M585.6000 -37875744.2771 M586.2000 -38857713.1152 M586.8000 -39865610.5248 M587.4000 -40900132.6114 M588.0000 -41961994.4557 M588.6000 -43051930.6384 M589.2000 -44170695.7790 M589.8000 -45319065.0906 M590.4000 -46497834.9494 M591.0000 -47707823.4812 M591.6000 -48949871.1631 M592.2000 -50224841.4433 M592.8000 -51533621.3771 M593.4000 -52877122.2820 M594.0000 -54256280.4101 M594.6000 -55672057.6402 M595.2000 -57125442.1888 M595.8000 -58617449.3412 M596.4000 -60149122.2037 M597.0000 -61721532.4760 M597.6000 -63335781.2464 M598.2000 -64992999.8082 M598.8000 -66694350.5003 M599.4000 -68441027.5707 M600.0000 -70234258.0645 "></path>
  <text text-anchor="end" font-size="1.5em" x="44.54545454545455" y="570.6451612903226">0</text>
  <text text-anchor="middle" font-size="24" x="0" y="570.6451612903226">-1</text>
  <text text-anchor="middle" font-size="24" x="109.0909090909091" y="570.6451612903226">1</text>
  <text text-anchor="middle" font-size="24" x="163.63636363636363" y="570.6451612903226">2</text>
  <text text-anchor="middle" font-size="24" x="218.1818181818182" y="570.6451612903226">3</text>
  <text text-anchor="middle" font-size="24" x="272.72727272727275" y="570.6451612903226">4</text>
  <text text-anchor="middle" font-size="24" x="327.27272727272725" y="570.6451612903226">5</text>
  <text text-anchor="middle" font-size="24" x="381.8181818181818" y="570.6451612903226">6</text>
  <text text-anchor="middle" font-size="24" x="436.3636363636364" y="570.6451612903226">7</text>
  <text text-anchor="middle" font-size="24" x="490.90909090909093" y="570.6451612903226">8</text>
  <text text-anchor="middle" font-size="24" x="545.4545454545455" y="570.6451612903226">9</text>
  <text text-anchor="middle" font-size="24" x="600" y="570.6451612903226">10</text>
  <text text-anchor="end" font-size="24" x="44.54545454545455" y="600">-1</text>
  <text text-anchor="end" font-size="24" x="44.54545454545455" y="503.2258064516129">4</text>
  <text text-anchor="end" font-size="24" x="44.54545454545455" y="406.4516129032258">9</text>
  <text text-anchor="end" font-size="24" x="44.54545454545455" y="309.6774193548387">14</text>
  <text text-anchor="end" font-size="24" x="44.54545454545455" y="212.9032258064516">19</text>
  <text text-anchor="end" font-size="24" x="44.54545454545455" y="116.12903225806451">24</text>
  <text text-anchor="end" font-size="24" x="44.54545454545455" y="19.354838709677438">29</text>
</svg>